<?xml version="1.0" encoding="utf-8"?>
<!-- Generator: Adobe Illustrator 22.1.0, SVG Export Plug-In . SVG Version: 6.00 Build 0)  -->
<svg version="1.1" id="Layer_1" xmlns="http://www.w3.org/2000/svg" xmlns:xlink="http://www.w3.org/1999/xlink" x="0px" y="0px"
	 width="419px" height="55px" viewBox="0 0 419 55" style="enable-background:new 0 0 419 55;" xml:space="preserve">
<style type="text/css">
	.st0{fill:#FFFFFF;}
</style>
<g>
	<path class="st0" d="M18.6,46.2c-8.2,0-17.9-5.8-17.9-17.4c0-9,5-14.7,13.5-18.4l0.7,0.4C9.4,15.5,7.8,20,7.8,26.6
		c0,3.5,1.3,6.8,3.5,9.4l1.6-1.1c2.4-1.7,2.8-2.5,2.8-6.8v-9.6c0-2-0.3-2.8-1-3.2v-0.4l6.4-4.1C16.7,10,12.9,8.3,9.3,8.3
		c-4.3,0-6.5,1.4-8.5,4.2L0,12.3C1.2,7.8,3.9,1.8,11.1,1.8s11.6,2.7,15.6,2.7c3.5,0,5.3-1.2,6.8-3.4L34,1.4c-0.5,5-3.2,9.2-7.6,9.9
		v28.6c3.2-0.7,5.9-2,7.5-3.7l0.6,0.6C31.2,43.4,26.1,46.2,18.6,46.2z M25.2,11.3c-0.9,0-1.6-0.1-2.4-0.2v14.1c0,4.1-2,5.9-5.9,8.5
		L12,36.8c2.3,2.3,5.3,3.7,8.8,3.7c1.5,0,3-0.2,4.3-0.4L25.2,11.3L25.2,11.3z M56.6,19.9v21c0,7.2-4.9,10.9-11.9,12.6l-0.1-0.3
		c3.7-2.1,5-4.7,5-8.5V20.1c-1.5-1-3.1-2-4.6-3l-1.4,1v20l1.7,1.2c0.5,0.4,1.4,0.8,2.2,0.9v0.1l-5,5.3l-6.8-5.1v-0.1
		c0.8-0.8,0.9-1.4,0.9-3.2V9.2c0-1.8-0.5-2.4-1.2-2.7V6.3c2-0.6,3.5-1.8,4.7-3C41.5,2,43.3,0.4,45.5,0l0.4,0.4
		c-1.3,1-2.3,2.5-2.3,5.9v10.8l5.3-4.6c2,1.3,6.3,3.8,8.6,5v0.1C56.9,18.2,56.6,19,56.6,19.9z M68.4,30v7.2l5.4,3.4l3.4-2.5l0.7,0.8
		L69,45.7l-9-6.1v-0.2c0.9-0.8,1.3-1.6,1.3-3.4V20.1l12.2-7.6l6,9.3L68.4,30z M68.4,17L68.4,17l-0.1,11.6l4.8-3.7L68.4,17z"/>
	<path class="st0" d="M124.4,45.6c-4.6-1-5.7-3.2-6.9-10.6c-1.4-8.9-3.1-11.1-6.1-11.4v15.2c0.8,0.2,1.3,0.5,1.8,0.9l-3.7,6
		c-3.4-1.6-6.4-2.5-10.8-2.5c-6.2,0-10.4,2.4-11.8,5.3l-0.6-0.2c0.5-5.5,5.7-9.8,12.2-10.8c1.7-1,2.7-3.4,2.7-6V14.7
		c0-4.1,1.8-6,7.4-10.1l6.1-4.5h0.3c6.5,2.3,11.6,5.7,11.6,11.5c0,6.3-3.8,9.4-9.3,10.8v0.1c3.4,0.7,6,3.4,7.1,8
		c1.2,5.2,1.4,7.6,3.2,8.5c0.5,0.2,1.1,0.4,1.8,0.2l0.1,0.1L124.4,45.6z M104.3,5.4c-2.8,2.1-5,4.3-5,8.5v16.4
		c0,4.1-2.4,6.4-7.7,8.3l-0.3-0.4c1.4-1.4,2.5-2.6,2.5-6.5v-6.1h-0.5c-1.5,0-2.4,0.4-2.8,1.8h-0.2c-0.4-0.7-0.9-1.7-0.9-3.1
		c0-2.2,1.7-3.6,4.2-3.6h0.2v-4.6c0-4.4,4.2-8.3,7.7-10c-1.6-0.5-4.3-1.4-6.6-1.4c-1.9,0-3.1,0.5-4.1,1.7l-0.2-0.3
		c1.1-4.2,3.8-6,7.2-6c2.8,0,4.6,1.3,6.3,1.3c2.3,0,3.9-0.1,5.1-1.1L110,1C110,1,108.2,2.5,104.3,5.4z M110.2,23.6
		c-0.5,0-1.6,0-2.1,0v5.6c0,3.9-1.7,6.1-6.4,8.3l0.1,0.1c0.4-0.1,1.6-0.1,2-0.1c1.8,0,4.5,0.5,6.4,1.1V23.6z M110.2,5.6
		c-1.2,0.9-2.1,2.2-2.1,4.6v11.9c0.7,0,1.4,0.1,2.1,0V5.6z M111.3,5.3V22c4.2-0.6,8.2-2.8,8.2-8C119.5,8.9,115.1,6.4,111.3,5.3z
		 M138.5,30v7.2l5.4,3.4l3.5-2.5l0.6,0.8l-8.8,6.8l-9-6.1v-0.2c0.9-0.8,1.2-1.6,1.2-3.4V20.1l12.3-7.6l5.9,9.3L138.5,30z M138.6,17
		l-0.1,0.1v11.5l4.8-3.7L138.6,17z M165.9,55c-2-1.4-5.2-2.5-7.6-2.5c-4.5,0-8,1.7-8.8,2.4l-0.2-0.1c0.5-5,5.6-8.2,11.2-8.2
		c3.8,0,6.7,1.2,9,2.8c0.6-0.8,0.9-1.4,0.9-2.3c0-2.4-5-1.6-5.8-6.7l-4.7,5.2l-9.7-5.6V40c0.9-0.8,1.2-1.6,1.2-3.2V20.6l10.9-8.1
		l10.2,5.7v0.1c-0.9,0.8-1.2,1.7-1.2,3.8v15.8c0,3.7,2.5,2.9,2.5,6.2C174,47,171.4,49.6,165.9,55z M164.3,21.1l-5.6-3.5h-0.2v20
		l5,2.7l0.8-0.7V21.1z M182.8,45.7l-6.7-4.9v-0.1c0.6-0.4,1.3-1.1,1.3-2.9V19.6l-1.3-1c-0.6-0.5-1.2-0.6-1.9-0.8v-0.1l5-5.1l6.5,5.1
		v0.1c-0.8,0.5-1.2,1.6-1.2,3.5v17.3l1.5,1.1c0.5,0.4,1.4,0.6,1.8,0.7v0.1L182.8,45.7z M181,9l-5.1-4.1L180,0l5.3,4.2L181,9z
		 M201.1,45.7c-1.8-1.3-3.8-2.3-6.9-2.3c-2.1,0-4.1,1-5.9,2.4l-0.5-0.3c1.7-7.9,4.8-10.9,7.2-13.8l-5.1-3.2v-5.2
		c0-1.9,0-2.7-0.9-3.6v-0.1l10.8-7.1c1.8,2.1,3.7,3,6.1,3c0.7,0,1.4-0.2,2.3-0.4l0.2,0.1c-1,3.3-3.1,5.5-6.3,5.5
		c-2.2,0-3.7-1-4.9-2.6l-0.1,0.1v6.8l2.8,1.8l2.3-2.1l6.8,4.2v6.9c0,1.2,0.2,1.9,0.8,2.5v0.1L201.1,45.7z M201.7,32.5l-3.9-2.4
		c-2.7,2.7-6.1,6.8-7.5,10.4l0.1,0.1c0.9-1.2,3.8-2.8,6.1-2.8c2.4,0,3.2,0.2,5.1,1.4h0.1C201.7,39.1,201.7,32.5,201.7,32.5z
		 M224.1,19.3h-3.9v19.2l2.5,1.4c0.6,0.4,1.4,0.6,2.1,0.7l0.1,0.1l-5.3,5l-7.6-4.8v-0.1c0.8-0.8,1.2-1.7,1.2-3.4v-18h-3.9l2-4.2h1.9
		V10l7.1-4.2v9.3h6L224.1,19.3z M234.7,30v7.2l5.4,3.4l3.4-2.5l0.7,0.8l-8.8,6.8l-9-6.1v-0.2c0.9-0.8,1.2-1.6,1.2-3.4V20.1l12.3-7.6
		l5.9,9.3L234.7,30z M234.8,17l-0.1,0.1v11.5l4.8-3.7L234.8,17z M261.1,21c-1.9,0-3.8-1.6-4.7-3h-0.2v20.2l1.7,1.2
		c0.5,0.4,1.4,0.8,2.1,0.9v0.1l-5,5.3l-7.2-5.1v-0.2c0.7-0.5,1.2-1.3,1.2-3.1V19.9l-1.3-1.3c-0.6-0.6-1.1-0.8-1.8-0.8v-0.1l5.1-5.1
		l5,4.6l3.9-4.6c0,0,2.5,3.8,7,3.8l0.1,0.1C266.3,18.9,264.3,21,261.1,21z M272.3,31.3c-3.4,0-4.1-1.4-6-1.4c-1.5,0-2.2,0.4-3.1,1.3
		L263,31c0.9-4.1,3-6.1,5.7-6.1c3.1,0,4,1.4,5.9,1.4c0.9,0,1.9-0.4,3-1.4l0.2,0.2C276.6,29.1,274.7,31.3,272.3,31.3z"/>
	<path class="st0" d="M302.1,46.4c-12.2,0-20.5-8.4-20.5-22c0-12.3,8.8-20.2,19.6-23.8l0.3,0.5c-5.8,3.7-11.8,10-11.8,22.3
		c0,4.9,1.2,8.8,3,11.8l1-0.8c1.5-1.2,2.1-2.3,2.1-5.4V14.8c0-2-0.4-3.4-1.4-3.7v-0.3C296.5,9.3,306,4,309.9,0.4
		c1.2,2.3,3.7,2.8,5,2.8c1.4,0,2.3-0.4,3.5-1.3l0.5,0.3C318,5.4,316.3,9,312,9c-2.6,0-4.6-1.2-6.1-2.6v13c1.6-0.9,3.5-1.6,5.6-1.6
		c7.9,0,12.1,5,12.1,11.7C323.5,38.6,313.2,46.4,302.1,46.4z M304.7,22c-0.8,0.4-1.4,0.8-2,1.2v2.5c0,3.2-1.9,5.3-5,7.4l-4.6,3.1
		c2.9,4.3,7.2,6.5,11.6,7.1L304.7,22L304.7,22z M304.7,5.5l-2,1.5v14.5c0.6-0.5,1.3-1,2-1.5V5.5z M308.5,21.3c-1,0-1.8,0.2-2.7,0.4
		v21.8c0.3,0,0.6,0,0.9,0c6.5,0,9.2-3.9,9.2-12.2C315.8,25,312.1,21.3,308.5,21.3z M344.5,45.7l-5-4.7l-5.3,4.7
		c-2.5-1.7-6.7-4.4-9.2-5.8v-0.2c0.8-0.5,1.2-1.7,1.2-3.2v-17l-1.3-0.9c-0.8-0.6-1.6-1-2.2-0.9v-0.1c0.7-0.6,4.5-4.3,5.2-5.1
		c1.6,1.3,5,3.9,6.4,5v0.1c-0.8,0.7-1,1.4-1,3.6v16.7c1.5,0.9,3.1,2,5,3l1.1-0.9V19.4l-1.3-0.8c-0.9-0.5-1.4-0.9-2.1-0.9v-0.1l5-5.1
		l6.6,5v0.1c-0.8,0.8-1.2,1.6-1.2,4v16.6l1,1.2c0.6,0.6,1.3,0.9,2.1,1.1v0.1L344.5,45.7z M368.2,45.7l-5-4.7l-6,4.7
		c-3.7-1.4-7.1-4.9-7.1-10c0-6.3,5-10,13.2-11.2v-3.6c-1.4-1.2-2.7-2.3-4.2-3.2c-1.4,1.5-2.5,2.3-4.5,2.3c-1.5,0-2.9-0.8-3.7-2.1
		l3.4-3.4c0.6,1.4,1.5,2.1,2.9,2.1c1.8,0,3-0.8,5.5-4.1l8.9,6.2v0.1c-0.8,0.6-1.2,1.7-1.2,4.1V38l1,1.2c0.6,0.6,1.2,0.9,2,1.1v0.1
		L368.2,45.7z M363.3,25.7c-3.1,0.6-6,3.4-6,8.3c0,3.8,1.4,5.8,4,7.2l2-1.5L363.3,25.7L363.3,25.7z M388.3,20.9
		c-1.9,0-3.7-1.6-4.6-3h-0.2v20.3l1.7,1.2c0.5,0.4,1.4,0.8,2.1,0.9v0.1l-5,5.3l-7.1-5.1v-0.1c0.8-0.5,1.2-1.4,1.2-3.2V19.6l-1.3-1.1
		c-0.6-0.5-1.3-0.8-1.9-0.8v-0.1l5.1-5.1l5.1,4.6l3.9-4.6c0,0,2.4,3.8,7,3.7l0.1,0.2C393.5,18.9,391.5,20.9,388.3,20.9z M414.1,45.8
		l-6.1-5l-4.9,5l-8-5.5V24.4c0-1.3-0.3-2.1-1.2-2.8v-0.2l8.7-6.8l-6.9-6.1c-1.6-1.4-3.1-2.5-4.7-3V5.3c1.2-0.9,2.5-1.3,4-1.3
		c0.9,0,1.8,0.2,2.8,0.4l0.1-0.1c-0.4-0.6-0.6-1.4-0.6-2.3c0-0.6,0.1-1.3,0.2-1.8l0.1-0.1c1,1.6,3,3.5,4.2,4.6l14.1,12.7v0.2
		c-0.6,0.9-0.9,1.4-0.9,3v17.7l1.7,1.3c0.8,0.6,1.4,1,2.3,1v0.2C417.9,41.7,414.1,45.8,414.1,45.8z M407.9,19.4l-4.5-4.1l-1.2,1.2
		v20.8l5,3.2l0.8-0.9L407.9,19.4L407.9,19.4z"/>
</g>
</svg>
