<?xml version="1.0" encoding="utf-8"?>
<!-- Generator: Adobe Illustrator 22.1.0, SVG Export Plug-In . SVG Version: 6.00 Build 0)  -->
<svg version="1.1" id="Layer_1" xmlns="http://www.w3.org/2000/svg" xmlns:xlink="http://www.w3.org/1999/xlink" x="0px" y="0px"
	 width="264.76px" height="43.2px" viewBox="0 0 264.76 43.2" style="enable-background:new 0 0 264.76 43.2;" xml:space="preserve"
	>
<g>
	<path style="fill:#FFFFFF;" d="M12.38,32.83c-5.08,0-11.12-3.6-11.12-10.83c0-5.58,3.13-9.11,8.39-11.41l0.43,0.22
		c-3.42,2.95-4.39,5.72-4.39,9.86c0,2.16,0.79,4.25,2.16,5.83l0.97-0.68c1.48-1.04,1.76-1.55,1.76-4.21v-5.98
		c0-1.26-0.18-1.76-0.61-2.02v-0.22l3.96-2.56c-2.7-0.5-5.11-1.55-7.34-1.55c-2.66,0-4.07,0.86-5.29,2.59l-0.47-0.14
		C1.58,8.97,3.24,5.22,7.7,5.22s7.23,1.69,9.68,1.69c2.2,0,3.31-0.72,4.25-2.09l0.32,0.18c-0.32,3.13-1.98,5.72-4.75,6.16v17.78
		c1.98-0.43,3.64-1.22,4.68-2.3l0.4,0.4C20.23,31.1,17.03,32.83,12.38,32.83z M16.49,11.13c-0.54,0-1.01-0.04-1.51-0.11v8.75
		c0,2.56-1.22,3.67-3.64,5.26L8.31,27c1.4,1.4,3.28,2.3,5.47,2.3c0.94,0,1.84-0.11,2.7-0.25V11.13z M36.03,16.49v13.07
		c0,4.5-3.06,6.8-7.42,7.81l-0.07-0.18c2.27-1.3,3.1-2.92,3.1-5.29V16.6c-0.94-0.65-1.91-1.22-2.84-1.84l-0.86,0.65v12.45l1.04,0.76
		c0.29,0.22,0.9,0.5,1.37,0.58v0.07l-3.13,3.28l-4.25-3.17V29.3c0.5-0.47,0.58-0.86,0.58-1.98V9.83c0-1.12-0.29-1.48-0.76-1.66V8
		c1.22-0.36,2.2-1.15,2.95-1.84c0.86-0.79,2.02-1.8,3.35-2.05l0.22,0.22C28.51,4.94,27.9,5.87,27.9,8v6.73l3.31-2.84
		c1.22,0.79,3.92,2.38,5.36,3.13v0.07C36.21,15.41,36.03,15.95,36.03,16.49z M43.34,22.79v4.46l3.35,2.12l2.12-1.58l0.43,0.47
		l-5.51,4.25l-5.58-3.82v-0.11c0.58-0.47,0.79-1.01,0.79-2.12V16.6l7.59-4.72l3.71,5.76L43.34,22.79z M43.37,14.69l-0.04,0.04v7.16
		l2.99-2.27L43.37,14.69z"/>
	<path style="fill:#FFFFFF;" d="M78.15,32.47c-2.88-0.61-3.56-1.98-4.32-6.59c-0.9-5.51-1.94-6.88-3.82-7.09v9.47
		c0.47,0.14,0.83,0.32,1.15,0.54l-2.3,3.71c-2.12-0.97-3.96-1.58-6.73-1.58c-3.85,0-6.44,1.48-7.31,3.31l-0.36-0.11
		c0.32-3.42,3.53-6.08,7.6-6.69c1.04-0.61,1.66-2.09,1.66-3.71V13.25c0-2.56,1.15-3.74,4.57-6.26l3.78-2.77h0.18
		c4.07,1.4,7.2,3.56,7.2,7.16c0,3.92-2.34,5.83-5.76,6.7v0.07c2.12,0.43,3.74,2.12,4.39,4.97c0.72,3.24,0.9,4.72,2.02,5.26
		c0.29,0.14,0.68,0.22,1.12,0.14l0.07,0.07L78.15,32.47z M65.66,7.46c-1.76,1.33-3.13,2.7-3.13,5.29v10.22c0,2.56-1.51,4-4.79,5.18
		l-0.18-0.25c0.9-0.86,1.55-1.62,1.55-4.03v-3.82h-0.29c-0.94,0-1.48,0.25-1.73,1.15h-0.14c-0.25-0.43-0.54-1.08-0.54-1.94
		c0-1.37,1.08-2.23,2.59-2.23h0.14v-2.84c0-2.74,2.63-5.18,4.79-6.23c-0.97-0.29-2.7-0.86-4.1-0.86c-1.19,0-1.91,0.32-2.56,1.08
		L57.13,8c0.68-2.59,2.38-3.74,4.5-3.74c1.76,0,2.84,0.83,3.92,0.83c1.44,0,2.41-0.07,3.2-0.68l0.43,0.32
		C69.19,4.72,68.07,5.66,65.66,7.46z M69.33,18.76c-0.29,0-0.97,0-1.3,0v3.46c0,2.45-1.04,3.78-3.96,5.15l0.04,0.07
		c0.25-0.04,0.97-0.04,1.22-0.04c1.15,0,2.81,0.29,4,0.68V18.76z M69.33,7.6c-0.72,0.58-1.3,1.37-1.3,2.84v7.42
		c0.43,0,0.86,0.04,1.3,0V7.6z M70.02,7.38v10.4c2.63-0.4,5.11-1.73,5.11-5C75.13,9.65,72.36,8.07,70.02,7.38z M86.9,22.79v4.46
		l3.35,2.12l2.16-1.58l0.4,0.47l-5.47,4.25l-5.58-3.82v-0.11c0.58-0.47,0.76-1.01,0.76-2.12V16.6l7.63-4.72l3.67,5.76L86.9,22.79z
		 M86.97,14.69l-0.07,0.04v7.16l2.99-2.27L86.97,14.69z M103.96,38.3c-1.22-0.86-3.24-1.55-4.75-1.55c-2.81,0-4.97,1.08-5.47,1.51
		l-0.11-0.07c0.32-3.1,3.49-5.08,6.98-5.08c2.34,0,4.18,0.72,5.62,1.76c0.4-0.47,0.58-0.86,0.58-1.4c0-1.51-3.13-0.97-3.6-4.18
		l-2.92,3.24l-6.05-3.49v-0.07c0.58-0.5,0.76-0.97,0.76-2.02V16.92l6.8-5.04l6.34,3.53v0.04c-0.54,0.47-0.72,1.04-0.72,2.38v9.83
		c0,2.3,1.58,1.8,1.58,3.85C109,33.34,107.38,34.96,103.96,38.3z M102.99,17.21l-3.46-2.16h-0.11v12.42l3.1,1.69l0.47-0.43V17.21z
		 M114.47,32.51l-4.18-3.02v-0.07c0.4-0.25,0.79-0.68,0.79-1.8v-11.3l-0.79-0.65c-0.36-0.29-0.72-0.4-1.19-0.5v-0.07l3.1-3.2
		l4.07,3.17v0.07c-0.47,0.29-0.76,0.97-0.76,2.16v10.76l0.94,0.68c0.32,0.25,0.9,0.36,1.15,0.43v0.07L114.47,32.51z M113.32,9.72
		l-3.17-2.56l2.59-3.02l3.28,2.59L113.32,9.72z M125.81,32.51c-1.15-0.83-2.34-1.4-4.32-1.4c-1.3,0-2.52,0.61-3.64,1.51l-0.32-0.18
		c1.08-4.93,2.99-6.8,4.5-8.6l-3.17-1.98v-3.24c0-1.19,0-1.66-0.54-2.23v-0.07l6.7-4.43c1.12,1.33,2.3,1.87,3.82,1.87
		c0.43,0,0.9-0.11,1.4-0.22l0.11,0.07c-0.65,2.05-1.91,3.42-3.92,3.42c-1.37,0-2.27-0.61-3.06-1.62l-0.07,0.07v4.21l1.73,1.12
		l1.4-1.3l4.21,2.59v4.28c0,0.72,0.14,1.19,0.5,1.55v0.07L125.81,32.51z M126.24,24.3l-2.41-1.51c-1.66,1.66-3.82,4.21-4.68,6.44
		l0.07,0.07c0.54-0.72,2.38-1.76,3.78-1.76c1.51,0,1.98,0.14,3.2,0.9h0.04V24.3z M140.14,16.09h-2.45v11.95l1.55,0.86
		c0.36,0.22,0.86,0.36,1.3,0.43l0.04,0.07l-3.28,3.1l-4.72-2.99v-0.07c0.5-0.47,0.72-1.04,0.72-2.09V16.13h-2.41l1.22-2.63h1.19
		v-3.17l4.39-2.63v5.8h3.71L140.14,16.09z M146.72,22.79v4.46l3.35,2.12l2.12-1.58l0.43,0.47l-5.47,4.25l-5.58-3.82v-0.11
		c0.58-0.47,0.76-1.01,0.76-2.12V16.6l7.63-4.72l3.67,5.76L146.72,22.79z M146.8,14.69l-0.07,0.04v7.16l2.99-2.27L146.8,14.69z
		 M163.14,17.14c-1.19,0-2.38-1.01-2.95-1.87h-0.11v12.56l1.08,0.76c0.29,0.22,0.86,0.5,1.33,0.58v0.07l-3.1,3.28l-4.46-3.17V29.2
		c0.43-0.29,0.76-0.79,0.76-1.91V16.45l-0.79-0.79c-0.36-0.36-0.68-0.47-1.15-0.5v-0.07l3.17-3.2l3.13,2.88l2.45-2.88
		c0,0,1.55,2.38,4.36,2.34l0.07,0.07C166.38,15.84,165.12,17.14,163.14,17.14z M170.12,23.58c-2.12,0-2.56-0.9-3.71-0.9
		c-0.94,0-1.37,0.22-1.94,0.83l-0.14-0.14c0.54-2.52,1.84-3.78,3.53-3.78c1.94,0,2.48,0.9,3.64,0.9c0.58,0,1.19-0.22,1.84-0.9
		l0.14,0.11C172.79,22.21,171.6,23.58,170.12,23.58z"/>
	<path style="fill:#FFFFFF;" d="M188.6,32.98c-7.6,0-12.74-5.22-12.74-13.68c0-7.67,5.44-12.56,12.17-14.79l0.18,0.29
		c-3.6,2.3-7.34,6.19-7.34,13.89c0,3.02,0.72,5.47,1.84,7.34l0.61-0.5c0.94-0.76,1.3-1.4,1.3-3.35v-8.89c0-1.26-0.25-2.09-0.86-2.27
		v-0.18c1.4-0.94,7.31-4.25,9.72-6.48c0.72,1.4,2.27,1.76,3.1,1.76c0.86,0,1.44-0.25,2.16-0.79l0.32,0.18
		c-0.58,1.94-1.58,4.21-4.28,4.21c-1.62,0-2.84-0.76-3.82-1.62v8.06c1.01-0.54,2.2-0.97,3.46-0.97c4.93,0,7.52,3.1,7.52,7.27
		C201.92,28.12,195.55,32.98,188.6,32.98z M190.26,17.79c-0.47,0.22-0.9,0.47-1.26,0.72v1.58c0,2.02-1.19,3.28-3.13,4.61l-2.84,1.94
		c1.8,2.66,4.5,4.07,7.24,4.39V17.79z M190.26,7.56L189,8.5v9c0.36-0.29,0.79-0.61,1.26-0.94V7.56z M192.6,17.32
		c-0.65,0-1.15,0.11-1.66,0.25V31.1c0.18,0,0.36,0,0.54,0c4.03,0,5.69-2.45,5.69-7.56C197.17,19.66,194.83,17.32,192.6,17.32z
		 M214.99,32.54l-3.13-2.92l-3.31,2.92c-1.55-1.04-4.18-2.74-5.69-3.6v-0.11c0.47-0.29,0.76-1.08,0.76-1.98V16.31l-0.83-0.58
		c-0.5-0.36-1.01-0.61-1.37-0.58v-0.07c0.43-0.4,2.77-2.7,3.24-3.2c1.01,0.79,3.13,2.45,4,3.1v0.07c-0.47,0.43-0.65,0.9-0.65,2.23
		v10.4c0.94,0.58,1.94,1.22,3.13,1.84l0.68-0.58V16.2l-0.83-0.5c-0.54-0.32-0.86-0.54-1.3-0.58v-0.07l3.13-3.2l4.1,3.1v0.04
		c-0.5,0.47-0.72,1.01-0.72,2.48v10.33l0.65,0.72c0.36,0.4,0.83,0.58,1.3,0.68v0.07L214.99,32.54z M229.74,32.54l-3.13-2.95
		l-3.74,2.95c-2.3-0.86-4.43-3.02-4.43-6.23c0-3.89,3.13-6.23,8.21-6.95V17.1c-0.86-0.72-1.69-1.4-2.59-2.02
		c-0.9,0.94-1.58,1.44-2.77,1.44c-0.94,0-1.8-0.5-2.3-1.33l2.09-2.12c0.4,0.9,0.94,1.33,1.8,1.33c1.15,0,1.87-0.5,3.42-2.52
		l5.51,3.85v0.07c-0.47,0.4-0.76,1.04-0.76,2.52v9.43l0.65,0.72c0.36,0.4,0.76,0.58,1.22,0.68v0.07L229.74,32.54z M226.65,20.09
		c-1.91,0.4-3.74,2.09-3.74,5.15c0,2.38,0.86,3.6,2.48,4.46l1.26-0.94V20.09z M242.2,17.1c-1.19,0-2.27-1.01-2.84-1.87h-0.14v12.6
		l1.08,0.76c0.29,0.22,0.86,0.5,1.33,0.58v0.07l-3.13,3.28l-4.43-3.17v-0.07c0.5-0.32,0.76-0.86,0.76-1.98V16.31l-0.79-0.68
		c-0.4-0.32-0.79-0.47-1.19-0.5v-0.07l3.17-3.17l3.17,2.84l2.41-2.84c0,0,1.51,2.34,4.36,2.3l0.04,0.11
		C245.44,15.84,244.18,17.1,242.2,17.1z M258.22,32.58l-3.82-3.13l-3.02,3.1l-4.97-3.42V19.3c0-0.83-0.18-1.33-0.72-1.73v-0.11
		l5.4-4.25l-4.28-3.82c-0.97-0.86-1.91-1.58-2.92-1.87V7.42c0.72-0.54,1.55-0.79,2.48-0.79c0.54,0,1.12,0.11,1.73,0.22l0.04-0.07
		c-0.25-0.4-0.4-0.9-0.4-1.4c0-0.4,0.07-0.79,0.14-1.15l0.07-0.07c0.61,0.97,1.87,2.2,2.59,2.84l8.75,7.88v0.11
		c-0.4,0.58-0.54,0.86-0.54,1.84v10.98l1.08,0.83c0.5,0.4,0.9,0.61,1.44,0.65v0.11C260.59,30.06,258.22,32.58,258.22,32.58z
		 M254.37,16.17l-2.81-2.52l-0.76,0.76v12.92l3.1,1.98l0.47-0.54V16.17z"/>
</g>
</svg>
